<svg width="25" height="25" viewBox="0 0 25 25" fill="none" xmlns="http://www.w3.org/2000/svg">
<g id="akar-icons:linkedin-fill">
<path id="Vector" fill-rule="evenodd" clip-rule="evenodd" d="M10.3818 9.66181H14.0958V11.5118C14.6308 10.4478 16.0028 9.49181 18.0638 9.49181C22.0148 9.49181 22.9528 11.6098 22.9528 15.4958V22.6928H18.9528V16.3808C18.9528 14.1678 18.4178 12.9198 17.0558 12.9198C15.1668 12.9198 14.3818 14.2648 14.3818 16.3798V22.6928H10.3818V9.66181ZM3.52276 22.5228H7.52276V9.49181H3.52276V22.5228ZM8.09576 5.24281C8.09591 5.57809 8.02941 5.91005 7.90015 6.2194C7.77088 6.52875 7.58141 6.80932 7.34276 7.04481C6.85916 7.52543 6.20457 7.79446 5.52276 7.79281C4.84215 7.79235 4.18907 7.52401 3.70476 7.04581C3.46697 6.80952 3.27814 6.52863 3.1491 6.21924C3.02006 5.90985 2.95334 5.57803 2.95276 5.24281C2.95276 4.56581 3.22276 3.91781 3.70576 3.43981C4.18964 2.96097 4.843 2.69251 5.52376 2.69281C6.20576 2.69281 6.85976 2.96181 7.34276 3.43981C7.82476 3.91781 8.09576 4.56581 8.09576 5.24281Z" fill="#07C51A"/>
</g>
</svg>
