<svg width="25" height="25" viewBox="0 0 25 25" fill="none" xmlns="http://www.w3.org/2000/svg">
<g id="ant-design:github-filled">
<path id="Vector" d="M12.9434 1.9811C7.14729 1.97875 2.45276 6.67094 2.45276 12.4623C2.45276 17.042 5.38948 20.935 9.47932 22.3647C10.0301 22.503 9.94573 22.1116 9.94573 21.8444V20.028C6.76526 20.4006 6.63635 18.2959 6.42307 17.9444C5.99182 17.2084 4.97229 17.0209 5.27698 16.6694C6.0012 16.2967 6.73948 16.7631 7.59495 18.0264C8.2137 18.9428 9.42073 18.7881 10.0324 18.6358C10.166 18.085 10.452 17.5928 10.8457 17.2108C7.55041 16.6202 6.17698 14.6092 6.17698 12.2186C6.17698 11.0584 6.55901 9.99203 7.30901 9.13188C6.83088 7.71391 7.35354 6.49985 7.42385 6.31938C8.78557 6.1975 10.2012 7.29438 10.3114 7.3811C11.0848 7.1725 11.9684 7.06235 12.9574 7.06235C13.9512 7.06235 14.8371 7.17719 15.6176 7.38813C15.8824 7.18656 17.1949 6.24438 18.4606 6.35922C18.5285 6.53969 19.0395 7.72563 18.5895 9.12485C19.3489 9.98735 19.7356 11.0631 19.7356 12.2256C19.7356 14.6209 18.3528 16.6342 15.0481 17.2155C15.3311 17.4938 15.5559 17.8258 15.7092 18.192C15.8625 18.5582 15.9413 18.9513 15.941 19.3483V21.985C15.9598 22.1959 15.941 22.4045 16.2926 22.4045C20.4434 21.0053 23.4317 17.0842 23.4317 12.4647C23.4317 6.67094 18.7348 1.9811 12.9434 1.9811Z" fill="#07C51A"/>
</g>
</svg>
