<svg width="25" height="25" viewBox="0 0 25 25" fill="none" xmlns="http://www.w3.org/2000/svg">
<g id="bi:person-fill">
<path id="Vector" d="M5.45276 21.6928C5.45276 21.6928 3.95276 21.6928 3.95276 20.1928C3.95276 18.6928 5.45276 14.1928 12.9528 14.1928C20.4528 14.1928 21.9528 18.6928 21.9528 20.1928C21.9528 21.6928 20.4528 21.6928 20.4528 21.6928H5.45276ZM12.9528 12.6928C14.1462 12.6928 15.2908 12.2187 16.1347 11.3748C16.9787 10.5309 17.4528 9.38628 17.4528 8.19281C17.4528 6.99934 16.9787 5.85474 16.1347 5.01083C15.2908 4.16692 14.1462 3.69281 12.9528 3.69281C11.7593 3.69281 10.6147 4.16692 9.77078 5.01083C8.92686 5.85474 8.45276 6.99934 8.45276 8.19281C8.45276 9.38628 8.92686 10.5309 9.77078 11.3748C10.6147 12.2187 11.7593 12.6928 12.9528 12.6928Z" fill="white"/>
</g>
</svg>
