<svg width="26" height="29" viewBox="0 0 26 29" fill="none" xmlns="http://www.w3.org/2000/svg">
<g id="fa-brands:js" clip-path="url(#clip0_155_67)">
<path id="Vector" d="M0.833954 1.83447V26.9876H25.987V1.83447H0.833954ZM14.5222 21.4516C14.5222 23.8996 13.0849 25.0169 10.9906 25.0169C9.09854 25.0169 8.00371 24.0399 7.44225 22.8553L9.36804 21.6931C9.7386 22.35 10.0755 22.9058 10.8896 22.9058C11.6644 22.9058 12.1585 22.6026 12.1585 21.4179V13.3836H14.5222V21.4516ZM20.1142 25.0169C17.919 25.0169 16.4985 23.9726 15.8079 22.6026L17.7337 21.4909C18.239 22.3163 18.9015 22.9283 20.0637 22.9283C21.0406 22.9283 21.6695 22.4398 21.6695 21.7604C21.6695 20.9519 21.0294 20.6656 19.9458 20.1884L19.3563 19.9357C17.6495 19.2114 16.5209 18.2963 16.5209 16.3705C16.5209 14.5963 17.8741 13.2488 19.9795 13.2488C21.4842 13.2488 22.5622 13.771 23.337 15.1409L21.4954 16.32C21.0912 15.5957 20.6532 15.3093 19.9739 15.3093C19.2833 15.3093 18.8454 15.7473 18.8454 16.32C18.8454 17.0274 19.2833 17.3137 20.2995 17.7573L20.8891 18.0099C22.8991 18.869 24.0276 19.7504 24.0276 21.7267C24.0276 23.849 22.3544 25.0169 20.1142 25.0169Z" fill="white"/>
</g>
<defs>
<clipPath id="clip0_155_67">
<rect width="25.1531" height="28.7464" fill="white" transform="translate(0.833923 0.0378418)"/>
</clipPath>
</defs>
</svg>
