<svg width="25" height="25" viewBox="0 0 25 25" fill="none" xmlns="http://www.w3.org/2000/svg">
<g id="grommet-icons:projects">
<path id="Vector" d="M7.95276 15.6928C9.05733 15.6928 9.95276 16.5882 9.95276 17.6928V21.6928C9.95276 22.7974 9.05733 23.6928 7.95276 23.6928H3.95276C2.84819 23.6928 1.95276 22.7974 1.95276 21.6928V17.6928C1.95276 16.5882 2.84819 15.6928 3.95276 15.6928H7.95276ZM21.9528 15.6928C23.0573 15.6928 23.9528 16.5882 23.9528 17.6928V21.6928C23.9528 22.7974 23.0573 23.6928 21.9528 23.6928H17.9528C16.8482 23.6928 15.9528 22.7974 15.9528 21.6928V17.6928C15.9528 16.5882 16.8482 15.6928 17.9528 15.6928H21.9528ZM7.95276 1.69281C9.05733 1.69281 9.95276 2.58824 9.95276 3.69281V7.69281C9.95276 8.79738 9.05733 9.69281 7.95276 9.69281H3.95276C2.84819 9.69281 1.95276 8.79738 1.95276 7.69281V3.69281C1.95276 2.58824 2.84819 1.69281 3.95276 1.69281H7.95276ZM21.9528 1.69281C23.0573 1.69281 23.9528 2.58824 23.9528 3.69281V7.69281C23.9528 8.79738 23.0573 9.69281 21.9528 9.69281H17.9528C16.8482 9.69281 15.9528 8.79738 15.9528 7.69281V3.69281C15.9528 2.58824 16.8482 1.69281 17.9528 1.69281H21.9528Z" fill="white"/>
</g>
</svg>
