<svg width="25" height="25" viewBox="0 0 25 25" fill="none" xmlns="http://www.w3.org/2000/svg">
<g id="logos:spotify-icon" clip-path="url(#clip0_104_668)">
<path id="Vector" d="M12.9601 0.241211C6.33271 0.241211 0.960083 5.61393 0.960083 12.2412C0.960083 18.869 6.3328 24.2412 12.9601 24.2412C19.5879 24.2412 24.9601 18.869 24.9601 12.2412C24.9601 5.6144 19.5879 0.241867 12.9599 0.241867L12.96 0.241305L12.9601 0.241211ZM18.4631 17.5488C18.2481 17.9013 17.7867 18.013 17.4342 17.7966C14.6167 16.0757 11.07 15.6859 6.89296 16.6402C6.69953 16.6843 6.49654 16.6497 6.32862 16.5441C6.16069 16.4385 6.04158 16.2705 5.99746 16.0771C5.97547 15.9813 5.97259 15.8822 5.98897 15.7853C6.00536 15.6885 6.04068 15.5958 6.09293 15.5126C6.14518 15.4294 6.21333 15.3574 6.29347 15.3005C6.37361 15.2437 6.46416 15.2033 6.55996 15.1815C11.1312 14.1371 15.0521 14.5867 18.2152 16.5199C18.5677 16.7362 18.6795 17.1963 18.4631 17.5488ZM19.9319 14.2813C19.661 14.7215 19.085 14.8605 18.6451 14.5896C15.4195 12.607 10.5026 12.0328 6.68746 13.1909C6.19265 13.3403 5.67008 13.0615 5.5199 12.5676C5.37083 12.0727 5.64983 11.5511 6.1438 11.4007C10.5018 10.0783 15.9196 10.7189 19.6238 12.9951C20.0637 13.2661 20.2027 13.842 19.9319 14.2813ZM20.058 10.8788C16.1904 8.58159 9.80952 8.37027 6.11699 9.49115C5.52402 9.67096 4.89693 9.33618 4.7173 8.74321C4.53758 8.14996 4.87199 7.52334 5.46543 7.34305C9.70415 6.05624 16.7508 6.30496 21.2034 8.94834C21.738 9.26484 21.9127 9.95371 21.5961 10.4863C21.2809 11.0197 20.5901 11.1955 20.0586 10.8788H20.058Z" fill="white"/>
</g>
<defs>
<clipPath id="clip0_104_668">
<rect width="24" height="24" fill="white" transform="translate(0.960083 0.241211)"/>
</clipPath>
</defs>
</svg>
