<svg width="30" height="30" viewBox="0 0 30 30" fill="none" xmlns="http://www.w3.org/2000/svg">
<g id="nonicons:react-16" clip-path="url(#clip0_155_69)">
<path id="Vector" d="M9.19207 4.95284C8.74111 5.21336 8.26679 5.93022 8.21109 7.4969C8.19528 7.85178 8.03997 8.18606 7.77896 8.42701C7.51794 8.66797 7.17234 8.79611 6.81733 8.78356C6.46232 8.77101 6.12663 8.61878 5.88328 8.35999C5.63994 8.1012 5.50863 7.75678 5.51792 7.40168C5.58619 5.48285 6.19346 3.57302 7.84458 2.61899C9.50109 1.66318 11.4648 2.09797 13.1645 3.00348C13.4799 3.17168 13.7156 3.45831 13.8197 3.8003C13.9238 4.14229 13.8878 4.51163 13.7196 4.82708C13.5514 5.14252 13.2648 5.37823 12.9228 5.48234C12.5808 5.58645 12.2115 5.55045 11.896 5.38224C10.5072 4.64023 9.64482 4.69412 9.19207 4.95284ZM16.4164 7.28849C16.5528 7.1757 16.71 7.09087 16.8792 7.03886C17.0483 6.98685 17.2261 6.96867 17.4022 6.98535C17.5784 7.00203 17.7496 7.05326 17.906 7.1361C18.0623 7.21894 18.2009 7.33177 18.3137 7.46815C19.3663 8.7451 20.3098 10.1082 21.1344 11.543C23.0029 14.7805 24.1546 18.0971 24.4654 20.8783C24.6199 22.2672 24.5732 23.5895 24.2498 24.7232C23.921 25.864 23.285 26.8971 22.2178 27.5134C20.926 28.259 19.433 28.1548 18.0693 27.6571C16.7003 27.1576 15.2899 26.2144 13.946 24.9873C13.686 24.7454 13.5321 24.4107 13.5176 24.0559C13.5031 23.7011 13.6292 23.3549 13.8685 23.0926C14.1079 22.8303 14.4411 22.673 14.7957 22.6551C15.1504 22.6371 15.4978 22.7598 15.7624 22.9966C16.9482 24.0782 18.0603 24.7861 18.991 25.1238C19.9288 25.4652 20.5181 25.3843 20.8703 25.1795C21.1649 25.0088 21.4632 24.6621 21.6572 23.9812C21.8549 23.2912 21.9177 22.3462 21.7866 21.1784C21.5261 18.8445 20.5289 15.8837 18.7987 12.8904C18.0501 11.5875 17.1937 10.3495 16.2385 9.18934C16.1257 9.05297 16.0409 8.89572 15.9889 8.72657C15.9369 8.55742 15.9187 8.37968 15.9354 8.2035C15.9521 8.02732 16.0033 7.85615 16.0861 7.69977C16.169 7.54339 16.2818 7.40485 16.4182 7.29208L16.4164 7.28849Z" fill="white"/>
<path id="Vector_2" d="M26.5297 15.4343C26.5297 14.9133 26.1452 14.1425 24.8175 13.3143C24.6673 13.2205 24.5371 13.0981 24.4343 12.9539C24.3314 12.8098 24.2579 12.6469 24.2181 12.4743C24.1782 12.3018 24.1727 12.1232 24.2019 11.9485C24.231 11.7739 24.2943 11.6067 24.3881 11.4566C24.5775 11.1533 24.8797 10.9376 25.228 10.8571C25.4006 10.8172 25.5792 10.8117 25.7539 10.8409C25.9285 10.8701 26.0957 10.9334 26.2458 11.0272C27.8736 12.0459 29.2247 13.5263 29.2247 15.4343C29.2247 17.346 27.8664 18.83 26.2315 19.8487C25.9284 20.0306 25.5659 20.0861 25.2223 20.0032C24.8786 19.9204 24.5813 19.7058 24.3944 19.4058C24.2075 19.1057 24.146 18.7442 24.2231 18.3993C24.3002 18.0543 24.5098 17.7534 24.8067 17.5616C26.1434 16.7279 26.5297 15.9554 26.5297 15.4343ZM20.8936 20.5224C20.9233 20.6969 20.9182 20.8755 20.8788 21.0481C20.8394 21.2206 20.7664 21.3837 20.664 21.528C20.5615 21.6723 20.4317 21.795 20.2818 21.8892C20.1319 21.9833 19.965 22.047 19.7905 22.0765C18.1582 22.3478 16.5062 22.4824 14.8515 22.479C11.1145 22.479 7.6649 21.8196 5.10108 20.6967C3.82007 20.138 2.70076 19.4355 1.88149 18.5875C1.05323 17.734 0.478302 16.665 0.478302 15.4343C0.478302 13.9431 1.31554 12.7034 2.42767 11.7692C3.54518 10.8331 5.06874 10.0839 6.80251 9.53414C7.14321 9.42597 7.51292 9.45758 7.83031 9.622C7.98747 9.70342 8.12706 9.81499 8.24109 9.95035C8.35513 10.0857 8.44139 10.2422 8.49495 10.4109C8.54851 10.5796 8.56832 10.7572 8.55324 10.9335C8.53816 11.1099 8.4885 11.2815 8.40709 11.4387C8.32567 11.5959 8.2141 11.7354 8.07874 11.8495C7.94338 11.9635 7.78688 12.0498 7.61819 12.1033C6.09103 12.5884 4.91962 13.1975 4.16143 13.8353C3.39606 14.4749 3.17328 15.0265 3.17328 15.4343C3.17328 15.7757 3.32599 16.2069 3.81827 16.7153C4.31774 17.231 5.10467 17.7574 6.18087 18.2281C8.33146 19.1696 11.3947 19.784 14.8515 19.784C16.4415 19.784 17.9543 19.6547 19.3395 19.4193C19.514 19.3897 19.6926 19.3947 19.8651 19.4341C20.0377 19.4735 20.2008 19.5465 20.3451 19.649C20.4894 19.7514 20.6121 19.8813 20.7062 20.0311C20.8004 20.181 20.864 20.348 20.8936 20.5224Z" fill="white"/>
<path id="Vector_3" d="M9.23157 25.1794C9.68073 25.4399 10.5413 25.492 11.9247 24.7572C12.0811 24.6741 12.2522 24.6227 12.4284 24.6058C12.6046 24.5889 12.7824 24.6068 12.9516 24.6586C13.1209 24.7104 13.2783 24.795 13.4148 24.9077C13.5514 25.0203 13.6644 25.1587 13.7474 25.315C13.8305 25.4713 13.8819 25.6425 13.8989 25.8187C13.9158 25.9949 13.8978 26.1727 13.846 26.3419C13.7942 26.5112 13.7096 26.6686 13.5969 26.8051C13.4843 26.9417 13.3459 27.0547 13.1896 27.1377C11.4935 28.0379 9.5352 28.4673 7.88408 27.515C6.22757 26.5574 5.6203 24.6404 5.55742 22.7144C5.55089 22.3605 5.68383 22.0183 5.92751 21.7617C6.17119 21.5051 6.50605 21.3546 6.85976 21.3428C7.21346 21.331 7.55761 21.4588 7.81785 21.6986C8.07809 21.9385 8.23353 22.2711 8.2506 22.6245C8.3045 24.1966 8.77881 24.9189 9.23157 25.1794ZM7.64333 17.7538C7.30838 17.6294 7.03656 17.3771 6.88764 17.0523C6.73872 16.7275 6.7249 16.3568 6.84921 16.0219C7.3918 14.5576 8.10148 13.0448 8.96926 11.5428C10.8378 8.30525 13.1339 5.64981 15.3869 3.9897C16.5116 3.16145 17.6794 2.5416 18.8239 2.25594C19.9755 1.96847 21.1901 2.00261 22.2555 2.61886C23.5491 3.36447 24.203 4.70836 24.4546 6.14029C24.7079 7.57582 24.5947 9.26826 24.203 11.0451C24.1714 11.2239 24.1039 11.3944 24.0047 11.5464C23.9054 11.6984 23.7765 11.8288 23.6256 11.9298C23.4748 12.0307 23.3051 12.1002 23.1267 12.1339C22.9483 12.1676 22.765 12.165 22.5877 12.1261C22.4103 12.0872 22.2427 12.0129 22.0948 11.9076C21.9469 11.8024 21.8218 11.6683 21.727 11.5135C21.6323 11.3587 21.5697 11.1863 21.5432 11.0067C21.5167 10.8271 21.5268 10.644 21.5728 10.4684C21.9159 8.90174 21.9734 7.583 21.8009 6.60562C21.6285 5.62465 21.2619 5.15573 20.9098 4.95271C20.6151 4.78203 20.1642 4.69758 19.4779 4.87006C18.7808 5.04434 17.9327 5.46296 16.9859 6.16006C15.0958 7.55066 13.0297 9.89709 11.3031 12.8903C10.5475 14.1903 9.90267 15.5516 9.3753 16.9597C9.25089 17.2947 8.99854 17.5665 8.67375 17.7154C8.34895 17.8643 7.97831 17.8781 7.64333 17.7538Z" fill="white"/>
<path id="Vector_4" d="M17.4746 15.1827C17.4746 15.8307 17.2172 16.4522 16.7589 16.9105C16.3007 17.3687 15.6792 17.6261 15.0312 17.6261C14.3831 17.6261 13.7616 17.3687 13.3034 16.9105C12.8452 16.4522 12.5877 15.8307 12.5877 15.1827C12.5877 14.5347 12.8452 13.9132 13.3034 13.4549C13.7616 12.9967 14.3831 12.7393 15.0312 12.7393C15.6792 12.7393 16.3007 12.9967 16.7589 13.4549C17.2172 13.9132 17.4746 14.5347 17.4746 15.1827Z" fill="white"/>
</g>
<defs>
<clipPath id="clip0_155_69">
<rect width="28.7464" height="28.7464" fill="white" transform="translate(0.478333 0.691162)"/>
</clipPath>
</defs>
</svg>
