<svg width="25" height="25" viewBox="0 0 25 25" fill="none" xmlns="http://www.w3.org/2000/svg">
<g id="ooui:message" clip-path="url(#clip0_104_680)">
<path id="Vector" d="M0.952759 10.2928V19.8928C0.952759 20.5293 1.20562 21.1398 1.6557 21.5899C2.10579 22.04 2.71624 22.2928 3.35276 22.2928H22.5528C23.1893 22.2928 23.7997 22.04 24.2498 21.5899C24.6999 21.1398 24.9528 20.5293 24.9528 19.8928V10.2928L12.9528 15.0928L0.952759 10.2928Z" fill="white"/>
<path id="Vector_2" d="M3.35276 3.0928C2.71624 3.0928 2.10579 3.34566 1.6557 3.79575C1.20562 4.24583 0.952759 4.85628 0.952759 5.4928L0.952759 7.8928L12.9528 12.6928L24.9528 7.8928V5.4928C24.9528 4.85628 24.6999 4.24583 24.2498 3.79575C23.7997 3.34566 23.1893 3.0928 22.5528 3.0928H3.35276Z" fill="white"/>
</g>
<defs>
<clipPath id="clip0_104_680">
<rect width="24" height="24" fill="white" transform="translate(0.952759 0.69281)"/>
</clipPath>
</defs>
</svg>
