<svg width="25" height="25" viewBox="0 0 25 25" fill="none" xmlns="http://www.w3.org/2000/svg">
<g id="solar:home-2-bold">
<path id="Vector" fill-rule="evenodd" clip-rule="evenodd" d="M3.47276 8.51581C2.95276 9.46281 2.95276 10.6078 2.95276 12.8958V14.4178C2.95276 18.3178 2.95276 20.2688 4.12476 21.4808C5.29576 22.6928 7.18176 22.6928 10.9528 22.6928H14.9528C18.7238 22.6928 20.6098 22.6928 21.7808 21.4808C22.9528 20.2688 22.9528 18.3188 22.9528 14.4178V12.8968C22.9528 10.6078 22.9528 9.46381 22.4328 8.51581C21.9148 7.56681 20.9658 6.97881 19.0688 5.80081L17.0688 4.55981C15.0638 3.31481 14.0608 2.69281 12.9528 2.69281C11.8448 2.69281 10.8428 3.31481 8.83676 4.55981L6.83676 5.80081C4.93976 6.97881 3.99176 7.56681 3.47276 8.51581ZM12.2028 18.6928C12.2028 18.8917 12.2818 19.0825 12.4224 19.2231C12.5631 19.3638 12.7538 19.4428 12.9528 19.4428C13.1517 19.4428 13.3424 19.3638 13.4831 19.2231C13.6237 19.0825 13.7028 18.8917 13.7028 18.6928V15.6928C13.7028 15.4939 13.6237 15.3031 13.4831 15.1625C13.3424 15.0218 13.1517 14.9428 12.9528 14.9428C12.7538 14.9428 12.5631 15.0218 12.4224 15.1625C12.2818 15.3031 12.2028 15.4939 12.2028 15.6928V18.6928Z" fill="#07C51A"/>
</g>
</svg>
