<svg width="25" height="24" viewBox="0 0 25 24" fill="none" xmlns="http://www.w3.org/2000/svg">
<g id="solar:programming-bold">
<path id="Vector" fill-rule="evenodd" clip-rule="evenodd" d="M4.41676 3.464C2.95276 4.93 2.95276 7.286 2.95276 12C2.95276 16.714 2.95276 19.071 4.41676 20.535C5.88276 22 8.23876 22 12.9528 22C17.6668 22 20.0238 22 21.4878 20.535C22.9528 19.072 22.9528 16.714 22.9528 12C22.9528 7.286 22.9528 4.929 21.4878 3.464C20.0248 2 17.6668 2 12.9528 2C8.23876 2 5.88176 2 4.41676 3.464ZM7.37676 9.52C7.5041 9.36729 7.68686 9.27139 7.88488 9.25338C8.08291 9.23538 8.27997 9.29675 8.43276 9.424L8.70976 9.654C9.31476 10.158 9.82976 10.587 10.1858 10.982C10.5648 11.402 10.8598 11.883 10.8598 12.5C10.8598 13.117 10.5648 13.599 10.1858 14.018C9.82976 14.413 9.31476 14.842 8.70976 15.346L8.43276 15.576C8.35749 15.6418 8.26981 15.692 8.17488 15.7234C8.07996 15.7549 7.97969 15.7671 7.88 15.7592C7.7803 15.7513 7.68318 15.7236 7.59436 15.6777C7.50553 15.6317 7.42679 15.5685 7.36276 15.4917C7.29874 15.4148 7.25073 15.326 7.22156 15.2303C7.19238 15.1347 7.18263 15.0341 7.19288 14.9347C7.20313 14.8352 7.23317 14.7388 7.28123 14.6511C7.3293 14.5634 7.39442 14.4862 7.47276 14.424L7.70676 14.229C8.36576 13.679 8.79676 13.319 9.07276 13.013C9.33476 12.723 9.35976 12.586 9.35976 12.5C9.35976 12.414 9.33476 12.278 9.07276 11.987C8.79576 11.681 8.36576 11.32 7.70676 10.771L7.47276 10.576C7.32004 10.4487 7.22414 10.2659 7.20614 10.0679C7.18814 9.86985 7.24951 9.67279 7.37676 9.52ZM18.7028 15C18.7028 15.1989 18.6237 15.3897 18.4831 15.5303C18.3424 15.671 18.1517 15.75 17.9528 15.75H12.9528C12.7538 15.75 12.5631 15.671 12.4224 15.5303C12.2818 15.3897 12.2028 15.1989 12.2028 15C12.2028 14.8011 12.2818 14.6103 12.4224 14.4697C12.5631 14.329 12.7538 14.25 12.9528 14.25H17.9528C18.1517 14.25 18.3424 14.329 18.4831 14.4697C18.6237 14.6103 18.7028 14.8011 18.7028 15Z" fill="white"/>
</g>
</svg>
