<svg width="30" height="30" viewBox="0 0 30 30" fill="none" xmlns="http://www.w3.org/2000/svg">
<g id="teenyicons:css3-solid" clip-path="url(#clip0_155_74)">
<path id="Vector" fill-rule="evenodd" clip-rule="evenodd" d="M0.979294 0.957678C1.06896 0.859936 1.17794 0.781874 1.29933 0.728433C1.42073 0.674992 1.5519 0.647336 1.68454 0.647217L28.5145 0.647217C28.6471 0.647279 28.7782 0.674853 28.8996 0.728196C29.021 0.781538 29.1299 0.859489 29.2197 0.957117C29.3094 1.05474 29.3778 1.16993 29.4207 1.29537C29.4636 1.42082 29.48 1.55381 29.4689 1.68592L27.5525 24.5221C27.5366 24.7086 27.4665 24.8865 27.3507 25.0336C27.2349 25.1807 27.0785 25.2907 26.9009 25.35L15.4023 29.1828C15.2058 29.2483 14.9933 29.2483 14.7967 29.1828L3.29817 25.35C3.12055 25.2907 2.96418 25.1807 2.84838 25.0336C2.73258 24.8865 2.66243 24.7086 2.64658 24.5221L0.730158 1.68592C0.719088 1.55391 0.735512 1.42103 0.778393 1.29568C0.821274 1.17034 0.889681 1.05525 0.979294 0.957678ZM21.807 6.3965H8.39203V8.31292H19.8906V12.1458H12.2249V14.0622H19.8906V18.1634L15.0995 19.7597L10.3085 18.1634V15.9786H8.39203V19.5432L15.0995 21.7796L21.807 19.5432V6.3965Z" fill="white"/>
</g>
<defs>
<clipPath id="clip0_155_74">
<rect width="28.7464" height="28.7464" fill="white" transform="translate(0.726135 0.647217)"/>
</clipPath>
</defs>
</svg>
